<?xml version="1.0" encoding="UTF-8"?>
<svg width="73px" height="73px" viewBox="0 0 73 73" version="1.1" xmlns="http://www.w3.org/2000/svg" xmlns:xlink="http://www.w3.org/1999/xlink">
    <!-- Generator: Sketch 50.2 (55047) - http://www.bohemiancoding.com/sketch -->
    <title>Group 2</title>
    <desc>Created with Sketch.</desc>
    <defs></defs>
    <g id="Page-1" stroke="none" stroke-width="1" fill="none" fill-rule="evenodd">
        <g id="Mobile-Controller" transform="translate(-364.000000, -123.000000)" fill="#231F20" fill-rule="nonzero">
            <g id="HUD" transform="translate(262.000000, 74.000000)">
                <g id="Group-2" transform="translate(102.000000, 49.000000)">
                    <path d="M63.2073171,73 L9.79268293,73 C4.45121951,73 0,68.5487805 0,63.2073171 L0,9.79268293 C0,4.45121951 4.45121951,0 9.79268293,0 L63.2073171,0 C68.5487805,0 73,4.45121951 73,9.79268293 L73,63.2073171 C73,68.5487805 68.5487805,73 63.2073171,73 Z M9.79268293,1.7804878 C5.34146341,1.7804878 1.7804878,5.34146341 1.7804878,9.79268293 L1.7804878,63.2073171 C1.7804878,67.6585366 5.34146341,71.2195122 9.79268293,71.2195122 L63.2073171,71.2195122 C67.6585366,71.2195122 71.2195122,67.6585366 71.2195122,63.2073171 L71.2195122,9.79268293 C71.2195122,5.34146341 67.6585366,1.7804878 63.2073171,1.7804878 L9.79268293,1.7804878 Z" id="Shape"></path>
                    <path d="M28.9217172,46.2777778 C28.7373737,46.2777778 28.5530303,46.2777778 28.3686869,46.0930144 C28.1843434,45.9082511 28,45.5387244 28,45.353961 L28,26.8776259 C28,26.5080992 28.1843434,26.3233359 28.3686869,26.1385725 C28.5530303,25.9538092 28.9217172,25.9538092 29.290404,26.1385725 L47.7247475,35.3767401 C48.0934343,35.5615034 48.2777778,35.9310301 48.2777778,36.1157935 C48.2777778,36.3005568 48.0934343,36.8548469 47.7247475,36.8548469 L29.290404,46.0930144 C29.290404,46.2777778 29.1060606,46.2777778 28.9217172,46.2777778 Z M29.8434343,28.3557327 L29.8434343,43.8758542 L45.3282828,36.1157935 L29.8434343,28.3557327 Z" id="Shape"></path>
                </g>
            </g>
        </g>
    </g>
</svg>