<?xml version="1.0" encoding="UTF-8"?>
<svg width="73px" height="74px" viewBox="0 0 73 74" version="1.1" xmlns="http://www.w3.org/2000/svg" xmlns:xlink="http://www.w3.org/1999/xlink">
    <!-- Generator: Sketch 50.2 (55047) - http://www.bohemiancoding.com/sketch -->
    <title>Group 3</title>
    <desc>Created with Sketch.</desc>
    <defs></defs>
    <g id="Page-1" stroke="none" stroke-width="1" fill="none" fill-rule="evenodd">
        <g id="Mobile-Controller" transform="translate(-465.000000, -171.000000)" fill="#231F20" fill-rule="nonzero">
            <g id="HUD" transform="translate(262.000000, 74.000000)">
                <g id="Group-5" transform="translate(203.000000, 0.000000)">
                    <g id="Group-3" transform="translate(0.000000, 97.593561)">
                        <path d="M63.2073171,73.195171 L9.79268293,73.195171 C4.45121951,73.195171 0,68.7320508 0,63.3763066 L0,9.81886441 C0,4.46312018 4.45121951,0 9.79268293,0 L63.2073171,0 C68.5487805,0 73,4.46312018 73,9.81886441 L73,63.3763066 C73,68.7320508 68.5487805,73.195171 63.2073171,73.195171 Z M9.79268293,1.78524807 C5.34146341,1.78524807 1.7804878,5.35574422 1.7804878,9.81886441 L1.7804878,63.3763066 C1.7804878,67.8394268 5.34146341,71.409923 9.79268293,71.409923 L63.2073171,71.409923 C67.6585366,71.409923 71.2195122,67.8394268 71.2195122,63.3763066 L71.2195122,9.81886441 C71.2195122,5.35574422 67.6585366,1.78524807 63.2073171,1.78524807 L9.79268293,1.78524807 Z" id="Shape"></path>
                        <path d="M36.1388889,48.331992 C35.7685185,48.331992 35.3981481,48.1471557 35.3981481,47.7774831 L26.1388889,29.293854 C25.9537037,28.9241815 25.9537037,28.7393452 26.1388889,28.3696726 C26.3240741,28 26.6944444,28 26.8796296,28 L45.3981481,28 C45.7685185,28 45.9537037,28.1848363 46.1388889,28.3696726 C46.3240741,28.5545089 46.3240741,28.9241815 46.1388889,29.293854 L36.8796296,47.7774831 C36.8796296,48.1471557 36.5092593,48.331992 36.1388889,48.331992 Z M28.3611111,29.8483629 L36.1388889,45.3746113 L43.9166667,29.8483629 L28.3611111,29.8483629 Z" id="Shape"></path>
                    </g>
                </g>
            </g>
        </g>
    </g>
</svg>