<?xml version="1.0" encoding="UTF-8"?>
<svg width="73px" height="74px" viewBox="0 0 73 74" version="1.1" xmlns="http://www.w3.org/2000/svg" xmlns:xlink="http://www.w3.org/1999/xlink">
    <!-- Generator: Sketch 50.2 (55047) - http://www.bohemiancoding.com/sketch -->
    <title>Group 4</title>
    <desc>Created with Sketch.</desc>
    <defs></defs>
    <g id="Page-1" stroke="none" stroke-width="1" fill="none" fill-rule="evenodd">
        <g id="Mobile-Controller" transform="translate(-465.000000, -74.000000)" fill="#231F20" fill-rule="nonzero">
            <g id="HUD" transform="translate(262.000000, 74.000000)">
                <g id="Group-5" transform="translate(203.000000, 0.000000)">
                    <g id="Group-4">
                        <path d="M63.2073171,73.195171 L9.79268293,73.195171 C4.45121951,73.195171 0,68.7320508 0,63.3763066 L0,9.81886441 C0,4.46312018 4.45121951,0 9.79268293,0 L63.2073171,0 C68.5487805,0 73,4.46312018 73,9.81886441 L73,63.3763066 C73,68.7320508 68.5487805,73.195171 63.2073171,73.195171 Z M9.79268293,1.78524807 C5.34146341,1.78524807 1.7804878,5.35574422 1.7804878,9.81886441 L1.7804878,63.3763066 C1.7804878,67.8394268 5.34146341,71.409923 9.79268293,71.409923 L63.2073171,71.409923 C67.6585366,71.409923 71.2195122,67.8394268 71.2195122,63.3763066 L71.2195122,9.81886441 C71.2195122,5.35574422 67.6585366,1.78524807 63.2073171,1.78524807 L9.79268293,1.78524807 Z" id="Shape"></path>
                        <path d="M45.2225993,44.331992 L26.8716692,44.331992 C26.5046506,44.331992 26.3211413,44.1458868 26.137632,43.9597816 C25.9541227,43.7736764 25.9541227,43.401466 26.137632,43.0292556 L35.313097,24.4187367 C35.6801156,23.8604211 36.5976621,23.8604211 36.9646807,24.4187367 L46.1401458,43.0292556 C46.3236551,43.401466 46.3236551,43.5875712 46.1401458,43.9597816 C45.9566365,44.331992 45.5896179,44.331992 45.2225993,44.331992 Z M28.3397436,42.4709401 L43.7545249,42.4709401 L36.0471342,26.8381041 L28.3397436,42.4709401 Z" id="Shape"></path>
                    </g>
                </g>
            </g>
        </g>
    </g>
</svg>