<?xml version="1.0" encoding="UTF-8"?>
<svg width="73px" height="73px" viewBox="0 0 73 73" version="1.1" xmlns="http://www.w3.org/2000/svg" xmlns:xlink="http://www.w3.org/1999/xlink">
    <!-- Generator: Sketch 50.2 (55047) - http://www.bohemiancoding.com/sketch -->
    <title>Group</title>
    <desc>Created with Sketch.</desc>
    <defs></defs>
    <g id="Page-1" stroke="none" stroke-width="1" fill="none" fill-rule="evenodd">
        <g id="Mobile-Controller" transform="translate(-262.000000, -123.000000)" fill="#231F20" fill-rule="nonzero">
            <g id="HUD" transform="translate(262.000000, 74.000000)">
                <g id="Group" transform="translate(0.000000, 49.000000)">
                    <path d="M63.2073171,73 L9.79268293,73 C4.45121951,73 0,68.5487805 0,63.2073171 L0,9.79268293 C0,4.45121951 4.45121951,0 9.79268293,0 L63.2073171,0 C68.5487805,0 73,4.45121951 73,9.79268293 L73,63.2073171 C73,68.5487805 68.5487805,73 63.2073171,73 Z M9.79268293,1.7804878 C5.34146341,1.7804878 1.7804878,5.34146341 1.7804878,9.79268293 L1.7804878,63.2073171 C1.7804878,67.6585366 5.34146341,71.2195122 9.79268293,71.2195122 L63.2073171,71.2195122 C67.6585366,71.2195122 71.2195122,67.6585366 71.2195122,63.2073171 L71.2195122,9.79268293 C71.2195122,5.34146341 67.6585366,1.7804878 63.2073171,1.7804878 L9.79268293,1.7804878 Z" id="Shape"></path>
                    <path d="M43.3560606,46.2777778 C43.1717172,46.2777778 42.9873737,46.2777778 42.9873737,46.0930144 L24.5530303,36.8548469 C24.1843434,36.6700835 24,36.3005568 24,36.1157935 C24,35.9310301 24.1843434,35.3767401 24.5530303,35.3767401 L42.9873737,26.1385725 C43.3560606,25.9538092 43.540404,25.9538092 43.9090909,26.1385725 C44.0934343,26.3233359 44.2777778,26.6928626 44.2777778,26.8776259 L44.2777778,45.353961 C44.2777778,45.7234877 44.0934343,45.9082511 43.9090909,46.0930144 C43.7247475,46.2777778 43.540404,46.2777778 43.3560606,46.2777778 Z M26.9494949,36.1157935 L42.4343434,43.8758542 L42.4343434,28.3557327 L26.9494949,36.1157935 Z" id="Shape"></path>
                </g>
            </g>
        </g>
    </g>
</svg>